<?xml version="1.0" standalone="no"?>
<!DOCTYPE svg PUBLIC "-//W3C//DTD SVG 20010904//EN"
 "http://www.w3.org/TR/2001/REC-SVG-20010904/DTD/svg10.dtd">
<svg version="1.0" xmlns="http://www.w3.org/2000/svg"
 width="30em" height="30em" viewBox="0 0 482.000000 482.000000" 
 preserveAspectRatio="xMidYMid meet">
<metadata>
Created by potrace 1.15, written by Peter Selinger 2001-2017
</metadata>
<g transform="translate(0.000000,482.000000) scale(0.100000,-0.100000)"
fill="#000000" stroke="none">
<path stroke-width="1" d="M0 2410 l0 -2410 1210 0 1210 0 0 80 0 80 80 0 c47 0 80 4 80 10 0 6
-33 10 -80 10 l-80 0 0 80 0 80 -160 0 -160 0 0 80 0 80 -80 0 -80 0 0 80 0
80 -80 0 -80 0 0 230 0 230 80 0 80 0 0 80 0 80 150 0 150 0 0 -80 0 -80 80 0
80 0 0 -240 0 -240 160 0 160 0 0 -80 0 -80 90 0 c53 0 90 4 90 10 0 6 -33 10
-80 10 l-80 0 0 80 0 80 -160 0 -160 0 0 150 0 150 70 0 70 0 0 -80 c0 -47 4
-80 10 -80 6 0 10 33 10 80 l0 80 160 0 160 0 0 160 0 160 80 0 c47 0 80 4 80
10 0 6 -60 10 -160 10 l-160 0 0 160 0 160 -170 0 -170 0 0 -170 0 -170 90 0
c53 0 90 4 90 10 0 6 -33 10 -80 10 l-80 0 0 150 0 150 150 0 150 0 0 -70 0
-70 -80 0 c-47 0 -80 -4 -80 -10 0 -6 33 -10 80 -10 l80 0 0 -150 0 -150 -80
0 c-47 0 -80 -4 -80 -10 0 -6 37 -10 90 -10 l90 0 0 80 0 80 70 0 70 0 0 -150
0 -150 -230 0 -230 0 0 80 0 80 -80 0 -80 0 0 80 0 80 -240 0 -240 0 0 150 0
150 160 0 160 0 0 170 c0 107 -4 170 -10 170 -6 0 -10 -60 -10 -160 l0 -160
-230 0 -230 0 0 80 0 80 -80 0 -80 0 0 80 0 80 -80 0 -80 0 0 80 0 80 -80 0
-80 0 0 230 0 230 230 0 230 0 0 -150 0 -150 -150 0 -150 0 0 70 0 70 80 0
c47 0 80 4 80 10 0 6 -37 10 -90 10 l-90 0 0 -90 0 -90 80 0 80 0 0 -80 c0
-47 4 -80 10 -80 6 0 10 33 10 80 l0 80 70 0 70 0 0 -160 0 -160 80 0 80 0 0
-80 c0 -47 4 -80 10 -80 6 0 10 37 10 90 l0 90 -80 0 -80 0 0 230 0 230 80 0
80 0 0 160 0 160 80 0 80 0 0 80 0 80 160 0 c100 0 160 4 160 10 0 6 -33 10
-80 10 l-80 0 0 150 0 150 80 0 c47 0 80 4 80 10 0 6 -60 10 -160 10 l-160 0
0 390 0 390 80 0 80 0 0 90 c0 53 -4 90 -10 90 -6 0 -10 -33 -10 -80 l0 -80
-80 0 -80 0 0 -80 0 -80 -80 0 -80 0 0 -80 0 -80 -150 0 -150 0 0 160 0 160
-90 0 -90 0 0 -80 0 -80 -150 0 -150 0 0 80 c0 47 -4 80 -10 80 -6 0 -10 -37
-10 -90 l0 -90 80 0 80 0 0 -70 0 -70 -80 0 c-47 0 -80 -4 -80 -10 0 -6 33
-10 80 -10 l80 0 0 -80 0 -80 80 0 80 0 0 -230 0 -230 -70 0 -70 0 0 160 c0
100 -4 160 -10 160 -6 0 -10 -63 -10 -170 l0 -170 80 0 80 0 0 -160 c0 -100 4
-160 10 -160 6 0 10 113 10 320 l0 320 80 0 c47 0 80 4 80 10 0 6 -33 10 -80
10 l-80 0 0 80 0 80 -80 0 -80 0 0 150 0 150 80 0 80 0 0 80 0 80 70 0 70 0 0
-150 0 -150 -80 0 c-47 0 -80 -4 -80 -10 0 -6 33 -10 80 -10 l80 0 0 -80 c0
-47 4 -80 10 -80 6 0 10 33 10 80 l0 80 160 0 160 0 0 80 0 80 70 0 70 0 0
-230 0 -230 -80 0 c-47 0 -80 -4 -80 -10 0 -6 33 -10 80 -10 l80 0 0 -150 0
-150 -160 0 -160 0 0 -90 c0 -53 4 -90 10 -90 6 0 10 33 10 80 l0 80 160 0
160 0 0 80 0 80 70 0 70 0 0 -150 0 -150 -80 0 -80 0 0 -80 0 -80 -70 0 -70 0
0 80 c0 47 -4 80 -10 80 -6 0 -10 -87 -10 -240 l0 -240 -70 0 -70 0 0 80 0 80
-80 0 -80 0 0 70 0 70 80 0 c47 0 80 4 80 10 0 6 -33 10 -80 10 l-80 0 0 230
0 230 160 0 c100 0 160 4 160 10 0 6 -33 10 -80 10 l-80 0 0 150 0 150 80 0
c47 0 80 4 80 10 0 6 -37 10 -90 10 l-90 0 0 -160 0 -160 -80 0 -80 0 0 -320
0 -320 -160 0 -160 0 0 -80 0 -80 -80 0 c-47 0 -80 -4 -80 -10 0 -6 33 -10 80
-10 l80 0 0 -150 0 -150 -70 0 -70 0 0 80 c0 47 -4 80 -10 80 -6 0 -10 -37
-10 -90 l0 -90 160 0 160 0 0 -80 0 -80 80 0 80 0 0 -70 0 -70 -160 0 c-100 0
-160 -4 -160 -10 0 -6 33 -10 80 -10 l80 0 0 -160 0 -160 160 0 160 0 0 -80
c0 -47 4 -80 10 -80 6 0 10 37 10 90 l0 90 -160 0 -160 0 0 150 0 150 150 0
150 0 0 -70 0 -70 -80 0 c-47 0 -80 -4 -80 -10 0 -6 60 -10 160 -10 l160 0 0
-160 0 -160 80 0 80 0 0 -70 0 -70 -240 0 -240 0 0 -80 0 -80 -80 0 c-47 0
-80 -4 -80 -10 0 -6 33 -10 80 -10 l80 0 0 -80 c0 -47 4 -80 10 -80 6 0 10 33
10 80 l0 80 80 0 c47 0 80 4 80 10 0 6 -33 10 -80 10 l-80 0 0 70 0 70 150 0
150 0 0 -240 0 -240 80 0 80 0 0 -150 0 -150 -150 0 -150 0 0 70 0 70 80 0
c47 0 80 4 80 10 0 6 -33 10 -80 10 l-80 0 0 160 c0 100 -4 160 -10 160 -6 0
-10 -33 -10 -80 l0 -80 -150 0 -150 0 0 80 c0 47 -4 80 -10 80 -6 0 -10 -37
-10 -90 l0 -90 160 0 160 0 0 -150 0 -150 -80 0 -80 0 0 -90 0 -90 170 0 c107
0 170 4 170 10 0 6 -60 10 -160 10 l-160 0 0 70 0 70 240 0 240 0 0 80 0 80
70 0 70 0 0 -150 0 -150 -80 0 c-47 0 -80 -4 -80 -10 0 -6 63 -10 170 -10 107
0 170 4 170 10 0 6 -33 10 -80 10 l-80 0 0 70 0 70 150 0 150 0 0 -150 0 -150
-550 0 -550 0 0 230 0 230 80 0 c47 0 80 4 80 10 0 6 -60 10 -160 10 l-160 0
0 310 0 310 80 0 80 0 0 80 0 80 80 0 c47 0 80 4 80 10 0 6 -37 10 -90 10
l-90 0 0 -80 0 -80 -70 0 -70 0 0 240 c0 153 -4 240 -10 240 -6 0 -10 -33 -10
-80 l0 -80 -150 0 -150 0 0 230 0 230 70 0 70 0 0 -160 c0 -100 4 -160 10
-160 6 0 10 60 10 160 l0 160 80 0 c47 0 80 4 80 10 0 6 -60 10 -160 10 l-160
0 0 390 0 390 70 0 70 0 0 -80 c0 -47 4 -80 10 -80 6 0 10 33 10 80 l0 80 80
0 80 0 0 90 0 90 -80 0 -80 0 0 320 c0 207 -4 320 -10 320 -6 0 -10 -117 -10
-330 l0 -330 80 0 80 0 0 -70 0 -70 -150 0 -150 0 0 400 0 400 -80 0 -80 0 0
70 0 70 80 0 c47 0 80 4 80 10 0 6 -37 10 -90 10 l-90 0 0 -90 0 -90 80 0 80
0 0 -310 0 -310 -150 0 -150 0 0 80 0 80 -80 0 -80 0 0 320 c0 207 -4 320 -10
320 -6 0 -10 -33 -10 -80 l0 -80 -80 0 -80 0 0 -90 c0 -53 4 -90 10 -90 6 0
10 33 10 80 l0 80 70 0 70 0 0 -230 0 -230 -80 0 c-47 0 -80 -4 -80 -10 0 -6
60 -10 160 -10 l160 0 0 -70 0 -70 -80 0 -80 0 0 -320 0 -320 -80 0 c-47 0
-80 -4 -80 -10 0 -6 37 -10 90 -10 l90 0 0 320 0 320 150 0 150 0 0 -400 c0
-260 4 -400 10 -400 7 0 10 140 10 400 l0 400 70 0 70 0 0 -470 0 -470 -150 0
-150 0 0 400 c0 260 -3 400 -10 400 -6 0 -10 -113 -10 -320 l0 -320 -160 0
c-100 0 -160 -4 -160 -10 0 -6 60 -10 160 -10 l160 0 0 -80 0 -80 160 0 160 0
0 -150 0 -150 -80 0 c-47 0 -80 -4 -80 -10 0 -6 33 -10 80 -10 l80 0 0 -80 0
-80 160 0 160 0 0 -480 0 -480 80 0 80 0 0 -230 0 -230 -150 0 -150 0 0 80 c0
47 -4 80 -10 80 -6 0 -10 -33 -10 -80 l0 -80 -70 0 -70 0 0 150 0 150 150 0
150 0 0 -80 c0 -47 4 -80 10 -80 6 0 10 37 10 90 l0 90 -240 0 -240 0 0 70 0
70 80 0 80 0 0 240 0 240 70 0 70 0 0 -240 c0 -153 4 -240 10 -240 7 0 10 143
10 410 l0 410 -90 0 c-53 0 -90 -4 -90 -10 0 -6 33 -10 80 -10 l80 0 0 -150 0
-150 -80 0 -80 0 0 -80 0 -80 -150 0 -150 0 0 160 c0 100 -4 160 -10 160 -6 0
-10 -63 -10 -170 l0 -170 80 0 80 0 0 -80 c0 -47 4 -80 10 -80 6 0 10 33 10
80 l0 80 70 0 70 0 0 -150 0 -150 -160 0 c-100 0 -160 -4 -160 -10 0 -6 33
-10 80 -10 l80 0 0 -80 0 -80 80 0 80 0 0 -150 0 -150 -390 0 -390 0 0 150 0
150 70 0 70 0 0 -80 0 -80 90 0 c53 0 90 4 90 10 0 6 -33 10 -80 10 l-80 0 0
80 0 80 -80 0 -80 0 0 150 0 150 80 0 c47 0 80 4 80 10 0 6 -33 10 -80 10
l-80 0 0 150 0 150 80 0 80 0 0 90 c0 53 -4 90 -10 90 -6 0 -10 -33 -10 -80
l0 -80 -70 0 -70 0 0 150 0 150 150 0 150 0 0 -230 0 -230 -80 0 c-47 0 -80
-4 -80 -10 0 -6 33 -10 80 -10 l80 0 0 -150 0 -150 -80 0 c-47 0 -80 -4 -80
-10 0 -6 33 -10 80 -10 l80 0 0 -80 0 -80 80 0 80 0 0 -80 0 -80 90 0 c53 0
90 4 90 10 0 6 -33 10 -80 10 l-80 0 0 80 0 80 -80 0 -80 0 0 150 0 150 80 0
c47 0 80 4 80 10 0 6 -33 10 -80 10 l-80 0 0 310 0 310 150 0 150 0 0 -160 c0
-100 4 -160 10 -160 6 0 10 33 10 80 l0 80 80 0 c47 0 80 4 80 10 0 6 -33 10
-80 10 l-80 0 0 160 c0 100 -4 160 -10 160 -6 0 -10 -33 -10 -80 l0 -80 -70 0
-70 0 0 160 0 160 -160 0 -160 0 0 80 c0 47 -4 80 -10 80 -6 0 -10 -37 -10
-90 l0 -90 80 0 80 0 0 -80 c0 -47 4 -80 10 -80 6 0 10 33 10 80 l0 80 70 0
70 0 0 -150 0 -150 -230 0 -230 0 0 70 0 70 80 0 c47 0 80 4 80 10 0 6 -33 10
-80 10 l-80 0 0 230 0 230 150 0 150 0 0 -80 0 -80 170 0 c107 0 170 4 170 10
0 6 -60 10 -160 10 l-160 0 0 80 0 80 -160 0 -160 0 0 230 0 230 80 0 c47 0
80 4 80 10 0 6 -33 10 -80 10 l-80 0 0 70 0 70 80 0 c47 0 80 4 80 10 0 6 -33
10 -80 10 l-80 0 0 150 0 150 70 0 70 0 0 -80 c0 -47 4 -80 10 -80 6 0 10 37
10 90 l0 90 -80 0 -80 0 0 150 0 150 80 0 c47 0 80 4 80 10 0 6 -33 10 -80 10
l-80 0 0 390 0 390 80 0 80 0 0 80 0 80 80 0 80 0 0 80 0 80 150 0 150 0 0
-80 c0 -47 4 -80 10 -80 6 0 10 33 10 80 l0 80 160 0 160 0 0 80 0 80 150 0
150 0 0 -80 0 -80 90 0 c53 0 90 4 90 10 0 6 -33 10 -80 10 l-80 0 0 160 c0
100 -4 160 -10 160 -6 0 -10 -33 -10 -80 l0 -80 -230 0 -230 0 0 80 0 80 -250
0 -250 0 0 -90 0 -90 170 0 c107 0 170 4 170 10 0 6 -60 10 -160 10 l-160 0 0
70 0 70 230 0 230 0 0 -80 0 -80 80 0 80 0 0 -70 0 -70 -390 0 -390 0 0 160
c0 100 -4 160 -10 160 -6 0 -10 -63 -10 -170 l0 -170 80 0 80 0 0 -70 0 -70
-80 0 -80 0 0 -80 0 -80 -70 0 -70 0 0 390 0 390 470 0 470 0 0 -80 0 -80 90
0 c53 0 90 4 90 10 0 6 -33 10 -80 10 l-80 0 0 70 0 70 470 0 470 0 0 -80 c0
-47 4 -80 10 -80 6 0 10 33 10 80 l0 80 70 0 70 0 0 -80 c0 -47 4 -80 10 -80
6 0 10 33 10 80 l0 80 80 0 c47 0 80 4 80 10 0 7 -383 10 -1130 10 l-1130 0 0
-2410z"/>
<path stroke-width="1" d="M2400 4810 c0 -6 113 -10 320 -10 l320 0 0 -160 c0 -100 4 -160 10
-160 6 0 10 60 10 160 l0 160 150 0 150 0 0 -150 0 -150 -70 0 -70 0 0 80 c0
47 -4 80 -10 80 -6 0 -10 -37 -10 -90 l0 -90 80 0 80 0 0 -80 0 -80 80 0 80 0
0 -160 0 -160 240 0 240 0 0 -80 c0 -47 4 -80 10 -80 6 0 10 33 10 80 l0 80
240 0 c153 0 240 4 240 10 0 6 -33 10 -80 10 l-80 0 0 70 0 70 80 0 c47 0 80
4 80 10 0 6 -33 10 -80 10 l-80 0 0 240 0 240 -170 0 -170 0 0 -80 0 -80 -150
0 -150 0 0 80 0 80 -90 0 c-53 0 -90 -4 -90 -10 0 -6 33 -10 80 -10 l80 0 0
-80 0 -80 170 0 170 0 0 80 0 80 150 0 150 0 0 -310 0 -310 -230 0 -230 0 0
80 c0 47 -4 80 -10 80 -6 0 -10 -33 -10 -80 l0 -80 -150 0 -150 0 0 150 0 150
70 0 70 0 0 -80 c0 -47 4 -80 10 -80 6 0 10 33 10 80 l0 80 230 0 230 0 0 -70
0 -70 -80 0 c-47 0 -80 -4 -80 -10 0 -6 37 -10 90 -10 l90 0 0 170 c0 107 -4
170 -10 170 -6 0 -10 -33 -10 -80 l0 -80 -390 0 -390 0 0 70 0 70 80 0 c47 0
80 4 80 10 0 6 -33 10 -80 10 l-80 0 0 150 0 150 230 0 230 0 0 -80 c0 -47 4
-80 10 -80 6 0 10 33 10 80 l0 80 470 0 470 0 0 -150 0 -150 -80 0 c-47 0 -80
-4 -80 -10 0 -6 33 -10 80 -10 l80 0 0 -390 0 -390 -240 0 c-153 0 -240 -4
-240 -10 0 -6 87 -10 240 -10 l240 0 0 -150 0 -150 -80 0 c-47 0 -80 -4 -80
-10 0 -6 33 -10 80 -10 l80 0 0 -550 0 -550 -150 0 -150 0 0 80 0 80 -90 0
c-53 0 -90 -4 -90 -10 0 -6 33 -10 80 -10 l80 0 0 -70 0 -70 -150 0 -150 0 0
80 0 80 -330 0 -330 0 0 -160 0 -160 -80 0 -80 0 0 -410 0 -410 80 0 80 0 0
-80 0 -80 90 0 c53 0 90 4 90 10 0 6 -33 10 -80 10 l-80 0 0 160 c0 100 -4
160 -10 160 -6 0 -10 -33 -10 -80 l0 -80 -70 0 -70 0 0 150 0 150 150 0 150 0
0 -160 c0 -100 4 -160 10 -160 6 0 10 33 10 80 l0 80 80 0 80 0 0 80 0 80 80
0 c47 0 80 4 80 10 0 6 -37 10 -90 10 l-90 0 0 -80 0 -80 -70 0 -70 0 0 80 0
80 -160 0 -160 0 0 70 0 70 320 0 c207 0 320 4 320 10 0 6 -33 10 -80 10 l-80
0 0 70 0 70 150 0 150 0 0 -230 0 -230 -80 0 c-47 0 -80 -4 -80 -10 0 -6 60
-10 160 -10 l160 0 0 -80 c0 -47 4 -80 10 -80 6 0 10 33 10 80 l0 80 150 0
150 0 0 -80 c0 -47 4 -80 10 -80 6 0 10 63 10 170 l0 170 -90 0 c-53 0 -90 -4
-90 -10 0 -6 33 -10 80 -10 l80 0 0 -70 0 -70 -150 0 -150 0 0 150 0 150 160
0 160 0 0 170 0 170 -90 0 c-53 0 -90 -4 -90 -10 0 -6 33 -10 80 -10 l80 0 0
-150 0 -150 -160 0 -160 0 0 -160 0 -160 -70 0 -70 0 0 230 0 230 160 0 c100
0 160 4 160 10 0 6 -33 10 -80 10 l-80 0 0 80 c0 47 -4 80 -10 80 -6 0 -10
-33 -10 -80 l0 -80 -230 0 -230 0 0 160 0 160 -90 0 c-53 0 -90 -4 -90 -10 0
-6 33 -10 80 -10 l80 0 0 -230 0 -230 -230 0 -230 0 0 150 0 150 150 0 150 0
0 -70 0 -70 -80 0 c-47 0 -80 -4 -80 -10 0 -6 37 -10 90 -10 l90 0 0 90 0 90
-80 0 -80 0 0 150 0 150 230 0 230 0 0 -160 0 -160 90 0 c53 0 90 4 90 10 0 6
-33 10 -80 10 l-80 0 0 150 0 150 70 0 70 0 0 -80 0 -80 320 0 320 0 0 -550 0
-550 -150 0 -150 0 0 80 c0 47 -4 80 -10 80 -6 0 -10 -33 -10 -80 l0 -80 -150
0 -150 0 0 80 c0 47 -4 80 -10 80 -6 0 -10 -37 -10 -90 l0 -90 320 0 320 0 0
-70 0 -70 -390 0 -390 0 0 160 c0 100 -4 160 -10 160 -6 0 -10 -63 -10 -170
l0 -170 240 0 240 0 0 -150 0 -150 -80 0 c-47 0 -80 -4 -80 -10 0 -6 63 -10
170 -10 l170 0 0 90 c0 53 -4 90 -10 90 -6 0 -10 -33 -10 -80 l0 -80 -70 0
-70 0 0 150 0 150 150 0 150 0 0 -230 0 -230 -310 0 -310 0 0 150 0 150 80 0
c47 0 80 4 80 10 0 6 -87 10 -240 10 l-240 0 0 240 c0 153 -4 240 -10 240 -6
0 -10 -60 -10 -160 l0 -160 -240 0 -240 0 0 -90 c0 -53 4 -90 10 -90 6 0 10
33 10 80 l0 80 230 0 230 0 0 -70 0 -70 -160 0 -160 0 0 -80 0 -80 -80 0 -80
0 0 -250 c0 -160 4 -250 10 -250 6 0 10 87 10 240 l0 240 80 0 80 0 0 80 0 80
310 0 310 0 0 -240 c0 -153 4 -240 10 -240 6 0 10 33 10 80 l0 80 310 0 310 0
0 -230 0 -230 -150 0 -150 0 0 150 0 150 70 0 70 0 0 -80 c0 -47 4 -80 10 -80
6 0 10 37 10 90 l0 90 -90 0 -90 0 0 -160 0 -160 -310 0 -310 0 0 150 0 150
70 0 70 0 0 -80 0 -80 170 0 170 0 0 90 c0 53 -4 90 -10 90 -6 0 -10 -33 -10
-80 l0 -80 -150 0 -150 0 0 160 c0 100 -4 160 -10 160 -6 0 -10 -33 -10 -80
l0 -80 -80 0 -80 0 0 -160 0 -160 -150 0 -150 0 0 230 0 230 70 0 70 0 0 -160
c0 -100 4 -160 10 -160 6 0 10 60 10 160 l0 160 80 0 80 0 0 80 0 80 80 0 c47
0 80 4 80 10 0 6 -63 10 -170 10 -107 0 -170 -4 -170 -10 0 -6 33 -10 80 -10
l80 0 0 -70 0 -70 -160 0 -160 0 0 -240 0 -240 -150 0 -150 0 0 80 c0 47 -4
80 -10 80 -6 0 -10 -33 -10 -80 l0 -80 -150 0 -150 0 0 80 c0 47 -4 80 -10 80
-6 0 -10 -33 -10 -80 l0 -80 -70 0 -70 0 0 150 0 150 150 0 150 0 0 -80 c0
-47 4 -80 10 -80 6 0 10 33 10 80 l0 80 80 0 80 0 0 330 c0 213 -4 330 -10
330 -6 0 -10 -113 -10 -320 l0 -320 -70 0 -70 0 0 160 0 160 -80 0 -80 0 0 70
0 70 80 0 80 0 0 160 0 160 160 0 c100 0 160 4 160 10 0 6 -33 10 -80 10 l-80
0 0 320 0 320 -90 0 -90 0 0 -90 c0 -53 4 -90 10 -90 6 0 10 33 10 80 l0 80
70 0 70 0 0 -150 0 -150 -150 0 -150 0 0 160 0 160 -160 0 -160 0 0 240 c0
153 -4 240 -10 240 -6 0 -10 -87 -10 -240 l0 -240 -150 0 -150 0 0 240 0 240
-80 0 -80 0 0 80 c0 47 -4 80 -10 80 -6 0 -10 -37 -10 -90 l0 -90 80 0 80 0 0
-70 0 -70 -150 0 -150 0 0 230 0 230 80 0 80 0 0 80 0 80 310 0 310 0 0 -80
c0 -47 4 -80 10 -80 6 0 10 37 10 90 l0 90 -160 0 -160 0 0 70 0 70 230 0 230
0 0 -230 0 -230 -150 0 -150 0 0 80 0 80 -90 0 c-53 0 -90 -4 -90 -10 0 -6 33
-10 80 -10 l80 0 0 -70 0 -70 -150 0 -150 0 0 80 c0 47 -4 80 -10 80 -6 0 -10
-37 -10 -90 l0 -90 80 0 80 0 0 -240 c0 -153 4 -240 10 -240 6 0 10 87 10 240
l0 240 230 0 230 0 0 -160 0 -160 90 0 c53 0 90 4 90 10 0 6 -33 10 -80 10
l-80 0 0 230 0 230 230 0 230 0 0 -150 0 -150 -150 0 -150 0 0 70 0 70 80 0
c47 0 80 4 80 10 0 6 -37 10 -90 10 l-90 0 0 -90 0 -90 80 0 80 0 0 -150 0
-150 -230 0 -230 0 0 160 c0 100 -4 160 -10 160 -6 0 -10 -63 -10 -170 l0
-170 250 0 250 0 0 160 0 160 80 0 80 0 0 160 0 160 630 0 630 0 0 -80 c0 -47
4 -80 10 -80 7 0 10 143 10 410 l0 410 -80 0 -80 0 0 150 0 150 80 0 c47 0 80
4 80 10 0 6 -37 10 -90 10 l-90 0 0 -80 0 -80 -80 0 c-47 0 -80 -4 -80 -10 0
-6 33 -10 80 -10 l80 0 0 -80 0 -80 80 0 80 0 0 -310 0 -310 -150 0 -150 0 0
80 c0 47 -4 80 -10 80 -6 0 -10 -33 -10 -80 l0 -80 -310 0 -310 0 0 150 0 150
230 0 230 0 0 -70 0 -70 -160 0 c-100 0 -160 -4 -160 -10 0 -6 63 -10 170 -10
l170 0 0 80 0 80 150 0 150 0 0 -80 c0 -47 4 -80 10 -80 6 0 10 37 10 90 l0
90 -160 0 -160 0 0 80 c0 47 -4 80 -10 80 -6 0 -10 -33 -10 -80 l0 -80 -230 0
-230 0 0 150 0 150 80 0 80 0 0 170 c0 107 -4 170 -10 170 -6 0 -10 -60 -10
-160 l0 -160 -70 0 -70 0 0 230 0 230 230 0 230 0 0 -230 0 -230 -70 0 -70 0
0 160 c0 100 -4 160 -10 160 -6 0 -10 -87 -10 -240 l0 -240 -80 0 c-47 0 -80
-4 -80 -10 0 -6 37 -10 90 -10 l90 0 0 80 0 80 150 0 150 0 0 -80 0 -80 90 0
c53 0 90 4 90 10 0 6 -33 10 -80 10 l-80 0 0 80 0 80 -80 0 -80 0 0 150 0 150
80 0 c47 0 80 4 80 10 0 6 -33 10 -80 10 l-80 0 0 150 0 150 240 0 240 0 0
250 0 250 -80 0 -80 0 0 150 0 150 80 0 c47 0 80 4 80 10 0 6 -37 10 -90 10
l-90 0 0 -170 0 -170 80 0 80 0 0 -230 0 -230 -240 0 -240 0 0 -80 0 -80 -310
0 -310 0 0 70 0 70 160 0 c100 0 160 4 160 10 0 6 -63 10 -170 10 l-170 0 0
-90 0 -90 80 0 80 0 0 -150 0 -150 -80 0 c-47 0 -80 -4 -80 -10 0 -6 33 -10
80 -10 l80 0 0 -150 0 -150 -310 0 -310 0 0 230 0 230 80 0 80 0 0 160 0 160
70 0 70 0 0 -230 0 -230 -80 0 c-47 0 -80 -4 -80 -10 0 -6 33 -10 80 -10 l80
0 0 -70 0 -70 -80 0 c-47 0 -80 -4 -80 -10 0 -6 63 -10 170 -10 107 0 170 4
170 10 0 6 -33 10 -80 10 l-80 0 0 150 0 150 80 0 c47 0 80 4 80 10 0 6 -33
10 -80 10 l-80 0 0 160 0 160 -90 0 -90 0 0 -160 0 -160 -80 0 -80 0 0 -240 0
-240 -80 0 c-47 0 -80 -4 -80 -10 0 -6 60 -10 160 -10 l160 0 0 -160 c0 -100
4 -160 10 -160 6 0 10 33 10 80 l0 80 150 0 150 0 0 -80 c0 -47 4 -80 10 -80
6 0 10 37 10 90 l0 90 -160 0 -160 0 0 70 0 70 230 0 230 0 0 -230 0 -230
-150 0 -150 0 0 80 c0 47 -4 80 -10 80 -6 0 -10 -33 -10 -80 l0 -80 -150 0
-150 0 0 160 c0 100 -4 160 -10 160 -6 0 -10 -60 -10 -160 l0 -160 -70 0 -70
0 0 160 0 160 -80 0 -80 0 0 80 c0 47 -4 80 -10 80 -6 0 -10 -33 -10 -80 l0
-80 -150 0 -150 0 0 240 0 240 -160 0 -160 0 0 230 0 230 80 0 80 0 0 160 0
160 70 0 70 0 0 -240 0 -240 80 0 80 0 0 -70 0 -70 -150 0 -150 0 0 80 c0 47
-4 80 -10 80 -6 0 -10 -37 -10 -90 l0 -90 160 0 160 0 0 -80 c0 -47 4 -80 10
-80 6 0 10 33 10 80 l0 80 150 0 150 0 0 -150 0 -150 -70 0 -70 0 0 80 c0 47
-4 80 -10 80 -6 0 -10 -33 -10 -80 l0 -80 -80 0 -80 0 0 -90 c0 -53 4 -90 10
-90 6 0 10 33 10 80 l0 80 160 0 160 0 0 170 0 170 -160 0 -160 0 0 80 0 80
-80 0 -80 0 0 240 0 240 -80 0 -80 0 0 150 0 150 240 0 c153 0 240 4 240 10 0
6 -87 10 -240 10 l-240 0 0 70 0 70 310 0 310 0 0 -230 0 -230 -80 0 -80 0 0
-90 c0 -53 4 -90 10 -90 6 0 10 33 10 80 l0 80 80 0 80 0 0 80 0 80 150 0 150
0 0 -80 0 -80 80 0 80 0 0 -70 0 -70 -150 0 -150 0 0 80 c0 47 -4 80 -10 80
-6 0 -10 -33 -10 -80 l0 -80 -80 0 -80 0 0 -80 0 -80 -150 0 -150 0 0 230 0
230 80 0 c47 0 80 4 80 10 0 6 -63 10 -170 10 -107 0 -170 -4 -170 -10 0 -6
33 -10 80 -10 l80 0 0 -240 0 -240 170 0 170 0 0 80 0 80 70 0 70 0 0 -150 0
-150 -160 0 c-100 0 -160 -4 -160 -10 0 -6 63 -10 170 -10 l170 0 0 160 0 160
160 0 160 0 0 90 0 90 -80 0 -80 0 0 80 0 80 -160 0 -160 0 0 160 0 160 -330
0 -330 0 0 -160 0 -160 -240 0 c-153 0 -240 -4 -240 -10 0 -6 33 -10 80 -10
l80 0 0 -70 0 -70 -80 0 -80 0 0 -80 0 -80 -70 0 -70 0 0 230 0 230 240 0
c153 0 240 4 240 10 0 6 -60 10 -160 10 l-160 0 0 80 c0 47 -4 80 -10 80 -6 0
-10 -33 -10 -80 l0 -80 -150 0 -150 0 0 70 0 70 80 0 c47 0 80 4 80 10 0 6
-37 10 -90 10 l-90 0 0 -90 0 -90 80 0 80 0 0 -150 0 -150 -230 0 -230 0 0 80
c0 47 -4 80 -10 80 -6 0 -10 -33 -10 -80 l0 -80 -160 0 -160 0 0 -80 0 -80
-150 0 -150 0 0 80 c0 47 -4 80 -10 80 -6 0 -10 -33 -10 -80 l0 -80 -80 0
c-47 0 -80 -4 -80 -10 0 -6 87 -10 240 -10 l240 0 0 -70 0 -70 -320 0 -320 0
0 -90 c0 -53 4 -90 10 -90 6 0 10 33 10 80 l0 80 150 0 150 0 0 -240 0 -240
80 0 80 0 0 -70 0 -70 -80 0 c-47 0 -80 -4 -80 -10 0 -6 33 -10 80 -10 l80 0
0 -80 c0 -47 4 -80 10 -80 6 0 10 63 10 170 l0 170 -80 0 -80 0 0 230 0 230
160 0 160 0 0 160 0 160 150 0 150 0 0 -80 c0 -47 4 -80 10 -80 6 0 10 33 10
80 l0 80 230 0 230 0 0 -160 c0 -100 4 -160 10 -160 6 0 10 33 10 80 l0 80 80
0 80 0 0 80 0 80 80 0 80 0 0 80 0 80 150 0 150 0 0 -230 0 -230 -80 0 -80 0
0 -250 0 -250 160 0 160 0 0 -150 0 -150 -80 0 c-47 0 -80 -4 -80 -10 0 -6 33
-10 80 -10 l80 0 0 -150 0 -150 -160 0 -160 0 0 -80 0 -80 -80 0 -80 0 0 -160
0 -160 -80 0 -80 0 0 -90 c0 -53 4 -90 10 -90 6 0 10 33 10 80 l0 80 70 0 70
0 0 -240 c0 -153 4 -240 10 -240 6 0 10 60 10 160 l0 160 150 0 150 0 0 -310
0 -310 -160 0 c-100 0 -160 -4 -160 -10 0 -6 63 -10 170 -10 l170 0 0 160 0
160 310 0 310 0 0 -160 0 -160 160 0 160 0 0 -150 0 -150 -80 0 -80 0 0 -160
0 -160 -160 0 c-100 0 -160 -4 -160 -10 0 -6 33 -10 80 -10 l80 0 0 -80 0 -80
80 0 80 0 0 -150 0 -150 -230 0 -230 0 0 80 0 80 -160 0 -160 0 0 80 0 80 -80
0 -80 0 0 70 0 70 80 0 80 0 0 90 c0 53 -4 90 -10 90 -6 0 -10 -33 -10 -80 l0
-80 -150 0 -150 0 0 70 0 70 80 0 80 0 0 90 c0 53 -4 90 -10 90 -6 0 -10 -33
-10 -80 l0 -80 -80 0 -80 0 0 -90 0 -90 80 0 80 0 0 -80 0 -80 80 0 80 0 0
-80 0 -80 160 0 160 0 0 -80 0 -80 80 0 80 0 0 -150 0 -150 -80 0 c-47 0 -80
-4 -80 -10 0 -7 383 -10 1130 -10 l1130 0 0 2410 0 2410 -1210 0 c-800 0
-1210 -3 -1210 -10z"/>
</g>
</svg>
